<?xml version="1.0" standalone="no"?>
<!DOCTYPE svg PUBLIC "-//W3C//DTD SVG 20010904//EN"
 "http://www.w3.org/TR/2001/REC-SVG-20010904/DTD/svg10.dtd">
<svg version="1.0" xmlns="http://www.w3.org/2000/svg"
 width="337.000000pt" height="337.000000pt" viewBox="0 0 337.000000 337.000000"
 preserveAspectRatio="xMidYMid meet">
<metadata>
Created by potrace 1.14, written by Peter Selinger 2001-2017
</metadata>
<g transform="translate(0.000000,337.000000) scale(0.100000,-0.100000)"
fill="#000000" stroke="none">
<path d="M1724 3247 c-12 -17 -24 -44 -28 -58 -4 -21 -11 -25 -35 -23 -35 2
-48 -10 -55 -50 -4 -21 1 -34 20 -53 27 -27 41 -26 27 4 -15 29 -10 57 11 61
25 5 33 -6 41 -53 10 -59 9 -143 -2 -117 -2 6 -20 12 -38 12 -31 0 -34 3 -37
32 -2 25 -10 36 -31 46 -36 17 -41 12 -23 -23 17 -32 13 -46 -31 -103 -18 -24
-33 -47 -33 -50 0 -4 -4 -24 -9 -44 -11 -47 -7 -48 15 -3 9 19 32 48 50 65 30
26 43 30 92 30 52 0 59 -3 77 -30 l20 -30 6 52 6 53 1 -55 2 -55 26 33 c23 29
31 32 77 32 60 0 103 -25 138 -81 13 -21 25 -36 27 -34 9 9 -23 84 -54 124
-35 45 -43 88 -22 109 6 6 9 14 6 18 -9 9 -63 -19 -64 -34 -1 -6 -2 -21 -3
-32 -1 -16 -8 -20 -36 -20 -19 0 -35 -3 -35 -7 0 -5 -10 -21 -23 -36 l-22 -29
-2 177 c-1 150 1 174 13 164 8 -6 19 -28 25 -48 10 -32 8 -43 -10 -79 -12 -23
-17 -42 -11 -42 6 0 10 -17 9 -37 -3 -76 4 -86 12 -18 11 102 14 110 37 113
28 4 37 -19 24 -57 -9 -25 -8 -28 8 -24 10 3 24 19 31 35 18 44 -5 83 -49 83
-18 0 -33 5 -33 12 -1 7 -2 17 -3 21 0 5 -12 25 -26 45 -31 46 -58 47 -86 4z
m43 -209 c-3 -7 -5 -2 -5 12 0 14 2 19 5 13 2 -7 2 -19 0 -25z m0 -60 c-3 -8
-6 -5 -6 6 -1 11 2 17 5 13 3 -3 4 -12 1 -19z"/>
<path d="M1560 2860 c-33 -33 -25 -41 40 -38 33 2 60 6 60 11 0 15 -41 47 -60
47 -11 0 -29 -9 -40 -20z"/>
<path d="M1892 2859 c-12 -11 -20 -24 -17 -29 3 -5 -9 -4 -27 1 -180 53 -347
-103 -306 -285 27 -121 167 -204 293 -173 106 26 174 117 175 231 0 74 -27
133 -81 179 -21 19 -39 36 -39 39 0 3 23 4 50 1 56 -4 68 13 28 41 -30 21 -50
20 -76 -5z m-22 -64 c103 -53 145 -176 95 -282 -62 -134 -235 -164 -340 -58
-142 141 -27 378 173 359 24 -2 56 -11 72 -19z"/>
<path d="M1557 2785 c-63 -32 -82 -57 -86 -110 -2 -27 -9 -59 -17 -70 -29 -41
-6 -132 45 -173 22 -18 101 -53 131 -58 21 -4 19 -1 -12 18 -79 49 -120 130
-122 238 0 61 17 96 68 142 35 32 33 34 -7 13z"/>
<path d="M1979 2765 c49 -56 63 -96 56 -161 -9 -99 -53 -173 -131 -221 -39
-24 39 -3 90 25 84 46 119 122 86 187 -11 22 -20 54 -20 72 0 28 3 32 25 30
14 -1 29 -7 33 -12 4 -6 12 -10 17 -11 33 -4 123 -39 164 -65 53 -32 77 -60
134 -155 20 -33 45 -68 57 -79 11 -10 20 -22 20 -26 0 -15 -65 -2 -103 21 -21
13 -53 26 -70 29 -27 6 -32 11 -34 41 -2 19 -10 41 -17 49 -13 12 -16 10 -23
-19 -12 -45 -50 -73 -94 -68 -34 4 -34 4 -9 15 58 25 80 84 46 122 -9 10 -16
22 -15 27 6 20 -13 70 -29 80 -15 10 -17 6 -19 -37 -3 -95 -73 -188 -181 -240
-42 -20 -64 -22 -192 -23 -140 -1 -147 0 -204 27 -111 54 -175 142 -176 242
l-1 50 -24 -28 c-16 -18 -25 -40 -25 -61 0 -21 -6 -36 -15 -40 -34 -13 1 -116
40 -116 8 0 17 -4 20 -10 11 -18 -62 -11 -85 8 -12 9 -25 32 -28 49 -9 43 -32
29 -41 -23 -5 -32 -11 -39 -36 -45 -17 -3 -48 -16 -69 -28 -41 -23 -106 -35
-106 -20 0 5 4 9 8 9 5 0 36 43 70 95 34 52 75 106 90 120 34 32 133 82 190
96 32 7 42 14 38 25 -4 12 -2 12 14 4 20 -11 40 -6 40 8 0 4 -20 15 -44 24
-57 21 -168 18 -216 -5 -79 -38 -163 -125 -242 -249 -37 -57 -50 -65 -108 -73
-18 -2 -42 -13 -54 -23 -27 -25 -60 -42 -82 -42 -16 0 -15 3 4 20 14 13 20 29
18 43 -3 12 -5 25 -5 28 -1 4 -15 12 -32 19 -45 19 -63 52 -57 105 3 25 4 45
3 45 -10 0 -45 -86 -48 -117 -5 -47 6 -80 41 -115 l26 -28 -157 0 c-86 0 -157
-3 -157 -7 0 -7 205 -9 1305 -14 248 -1 257 -1 200 -15 -110 -26 -195 -113
-195 -199 0 -41 31 -105 51 -105 24 0 1 -24 -27 -27 -72 -10 -180 -86 -214
-152 -76 -150 -1 -260 187 -274 110 -8 233 30 307 94 55 49 77 86 79 139 1 44
-29 86 -67 92 -11 2 15 12 59 22 169 38 205 59 205 122 0 25 -2 26 -17 13 -27
-22 -57 -34 -183 -73 -63 -20 -130 -45 -148 -56 -41 -25 -59 -62 -45 -92 l11
-23 12 27 c7 15 19 29 26 32 19 7 64 -11 65 -26 0 -7 2 -22 4 -32 11 -57 -61
-146 -142 -176 -217 -81 -346 102 -189 268 49 53 101 75 174 75 47 -1 65 3 69
14 7 19 -12 31 -40 26 -30 -5 -85 31 -93 62 -12 47 5 92 50 138 49 48 89 64
160 62 35 -1 52 -6 62 -20 20 -27 17 -68 -6 -95 -25 -29 -25 -30 0 -30 11 0
34 13 52 28 26 24 31 36 30 67 -2 45 -40 91 -83 100 -16 4 -29 10 -29 13 0 4
226 7 503 7 277 0 516 3 532 6 17 4 -14 7 -69 8 l-99 1 28 28 c52 52 58 100
20 181 -25 53 -44 67 -27 20 14 -40 0 -81 -36 -105 -18 -13 -38 -24 -44 -26
-18 -6 -11 -68 9 -84 17 -13 17 -13 -3 -14 -12 0 -40 14 -64 31 -24 17 -58 33
-77 35 -48 4 -56 11 -111 94 -74 110 -154 189 -231 227 -37 18 -59 22 -120 19
-47 -2 -89 -9 -109 -20 -40 -20 -53 -16 -19 7 91 60 254 31 360 -64 29 -26 76
-80 106 -121 67 -91 92 -110 150 -116 93 -9 162 49 159 133 -3 79 -90 124
-149 77 -48 -40 -13 -129 47 -118 37 7 44 15 44 52 0 40 15 38 23 -3 15 -82
-81 -136 -163 -91 -19 10 -53 44 -75 75 -66 94 -148 171 -208 199 -102 46
-250 42 -298 -9 l-19 -21 -27 26 c-16 14 -39 31 -53 38 -22 12 -22 9 9 -25z
m-587 -54 c4 -3 -21 -7 -56 -7 -77 -2 -120 -23 -145 -72 -12 -24 -27 -38 -40
-39 -34 -3 -89 -33 -106 -60 -9 -13 -18 -49 -20 -79 -3 -49 -24 -102 -43 -105
-31 -7 -132 -5 -132 2 0 5 13 9 30 9 24 0 36 10 68 53 21 28 49 70 62 92 13
22 34 51 47 65 12 14 30 34 40 45 68 76 251 136 295 96z m873 3 c110 -33 172
-86 270 -229 73 -106 90 -124 117 -125 9 0 20 -5 23 -10 8 -13 -80 -12 -116 2
-33 12 -47 39 -52 104 -5 71 -34 109 -100 130 -41 13 -55 23 -67 48 -22 45
-79 73 -145 72 -30 -1 -55 2 -55 6 0 15 78 16 125 2z"/>
<path d="M1201 2771 c-83 -31 -137 -76 -222 -186 -66 -86 -97 -115 -126 -116
-13 -1 -29 -2 -35 -2 -7 -1 -28 4 -46 10 -37 14 -65 64 -52 97 11 32 27 29 27
-5 0 -51 41 -64 87 -28 70 55 -23 152 -105 109 -46 -25 -60 -111 -26 -163 31
-47 120 -71 180 -48 34 13 64 44 130 132 60 81 102 120 157 148 90 46 174 57
248 32 58 -20 69 -11 20 15 -51 27 -171 29 -237 5z"/>
<path d="M1242 2574 c-13 -9 -27 -27 -32 -40 -5 -13 -16 -24 -24 -24 -16 0
-82 -78 -73 -86 8 -9 47 20 53 39 4 12 14 17 30 15 18 -2 28 4 37 22 11 21 28
34 72 54 6 3 1 12 -9 20 -24 20 -26 20 -54 0z"/>
<path d="M2234 2569 c-10 -11 -14 -20 -11 -20 46 -9 65 -21 77 -48 9 -23 16
-27 36 -23 19 3 26 0 31 -17 3 -11 9 -21 13 -21 5 0 16 -7 24 -16 23 -23 20
-1 -6 40 -13 20 -32 38 -44 42 -12 3 -28 20 -37 38 -19 41 -58 52 -83 25z"/>
<path d="M561 2472 c-22 -52 7 -123 43 -109 15 6 14 9 -4 27 -20 20 -24 34
-21 83 1 35 -4 34 -18 -1z"/>
<path d="M2955 2460 c2 -28 -3 -47 -17 -65 -23 -29 -19 -40 11 -30 23 7 35 52
26 95 -10 45 -24 45 -20 0z"/>
<path d="M3008 2425 c3 -21 0 -35 -7 -35 -6 0 -11 -7 -11 -15 0 -22 16 -18 34
6 13 19 13 25 0 50 -8 16 -16 29 -17 29 -2 0 -1 -16 1 -35z"/>
<path d="M505 2428 c-4 -9 -5 -24 -3 -34 4 -21 34 -41 45 -31 4 5 2 12 -5 16
-7 4 -17 21 -21 37 -7 23 -10 26 -16 12z"/>
<path d="M455 2412 c-8 -27 4 -52 26 -52 23 0 25 13 4 30 -8 7 -13 16 -10 20
3 5 1 11 -4 14 -5 4 -12 -2 -16 -12z"/>
<path d="M3060 2417 c0 -8 -7 -20 -15 -27 -19 -16 -4 -36 19 -27 18 7 22 52 6
62 -5 3 -10 0 -10 -8z"/>
<path d="M235 2330 c3 -5 8 -10 11 -10 2 0 4 5 4 10 0 6 -5 10 -11 10 -5 0 -7
-4 -4 -10z"/>
<path d="M313 2333 c9 -2 23 -2 30 0 6 3 -1 5 -18 5 -16 0 -22 -2 -12 -5z"/>
<path d="M3068 2333 c6 -2 18 -2 25 0 6 3 1 5 -13 5 -14 0 -19 -2 -12 -5z"/>
<path d="M963 2006 c16 -17 16 -288 -1 -308 -8 -10 0 -13 38 -14 41 0 46 2 33
11 -12 9 -17 32 -19 89 l-3 76 95 0 c106 0 98 8 95 -94 -1 -33 -5 -64 -11 -70
-6 -9 2 -12 31 -11 39 0 46 5 32 19 -5 4 -9 70 -10 147 -1 112 2 142 14 154
13 13 9 15 -33 15 -38 0 -44 -2 -35 -14 6 -8 13 -39 14 -70 l3 -56 -97 0 -98
0 3 61 c2 35 8 64 15 69 8 4 -7 8 -33 8 -39 1 -45 -1 -33 -12z"/>
<path d="M2482 2009 c13 -7 15 -34 14 -156 -1 -82 -4 -152 -8 -158 -4 -6 9
-10 32 -10 31 -1 37 2 28 13 -13 16 -19 269 -6 294 14 29 82 2 92 -37 11 -40
6 -66 -19 -91 -35 -34 -31 -38 10 -12 47 31 65 86 41 123 -9 14 -28 30 -42 36
-32 12 -163 10 -142 -2z"/>
<path d="M445 1259 c-105 -5 -97 -11 18 -10 63 0 86 -10 52 -23 -19 -7 -19
-46 -2 -71 13 -16 14 -15 10 12 -3 18 1 34 11 42 8 7 13 18 10 25 -4 10 10 13
56 14 l62 0 -20 -21 c-47 -50 -48 -118 -5 -197 l24 -45 -6 47 c-9 63 -2 81 45
107 22 12 41 26 41 32 1 5 2 15 3 22 1 6 -1 22 -5 34 -7 18 -5 21 11 18 26 -5
54 -21 70 -39 7 -9 25 -16 41 -16 46 0 72 -18 106 -73 107 -171 231 -268 346
-268 48 0 128 15 149 27 13 8 -3 33 -18 27 -8 -3 -20 -1 -27 5 -6 5 -30 15
-52 21 -72 22 -147 64 -191 108 -24 23 -44 47 -44 53 0 10 -59 100 -88 133
-13 14 -13 17 -1 18 8 1 21 2 29 3 8 1 41 -11 72 -26 32 -16 60 -28 63 -28 3
0 10 0 15 0 6 0 10 -12 10 -26 0 -29 16 -64 30 -64 6 0 10 9 10 19 0 33 11 51
41 66 32 17 79 20 79 5 0 -5 -6 -10 -14 -10 -7 0 -25 -9 -40 -21 -30 -23 -36
-78 -11 -99 8 -7 15 -24 15 -37 0 -26 29 -83 42 -83 4 0 8 21 8 48 1 90 67
182 167 232 42 21 58 23 213 22 188 0 208 -6 287 -79 55 -50 83 -108 85 -172
1 -28 5 -51 9 -51 13 0 41 54 41 79 0 14 7 33 15 43 8 9 16 25 17 35 4 23 -29
70 -54 78 -29 9 -25 25 6 25 41 0 84 -36 84 -71 0 -16 4 -29 9 -29 17 0 34 31
33 60 0 24 4 30 30 35 17 4 45 16 63 26 27 16 105 34 105 24 0 -7 -114 -176
-141 -208 -33 -39 -144 -99 -207 -112 -18 -4 -36 -13 -39 -21 -4 -12 -8 -12
-20 -2 -11 9 -16 9 -23 -3 -22 -34 116 -64 200 -44 18 5 22 3 15 -4 -19 -19
-116 -24 -160 -8 -22 8 -49 18 -60 21 -14 6 -11 0 9 -18 56 -48 191 -51 291
-7 50 22 144 112 220 211 39 51 59 67 90 76 44 12 95 2 119 -25 28 -31 29
-101 2 -101 -8 0 -11 10 -8 28 5 38 -30 56 -75 37 -35 -15 -46 -44 -32 -85 9
-25 32 -39 74 -45 25 -3 63 18 78 44 54 91 -28 198 -142 187 -56 -6 -84 -27
-144 -107 -73 -98 -133 -157 -188 -185 -28 -14 -53 -23 -56 -20 -3 2 12 13 34
24 63 33 130 99 199 198 69 99 86 114 128 114 15 0 45 14 68 30 42 30 90 42
71 18 -14 -18 -22 -54 -14 -65 3 -5 23 -19 44 -32 26 -16 40 -33 45 -55 3 -17
6 -33 5 -36 0 -3 -3 -18 -7 -35 l-7 -30 20 33 c27 41 45 115 37 146 -3 13 -17
38 -31 54 l-25 30 77 1 c115 2 102 11 -18 12 -338 5 -2401 3 -2484 -2z m555
-32 c11 -9 20 -25 21 -34 1 -10 2 -31 4 -48 1 -16 3 -38 4 -47 2 -28 60 -78
104 -89 32 -8 46 -18 57 -42 24 -49 57 -67 140 -74 48 -4 67 -9 55 -14 -37
-13 -118 1 -183 31 -77 36 -128 86 -212 213 -61 91 -104 128 -126 109 -4 -4
-5 -2 -2 3 10 17 115 12 138 -8z m1639 4 c-22 -11 -55 -48 -100 -114 -37 -54
-78 -110 -91 -124 -67 -72 -188 -125 -268 -117 -65 6 -62 14 6 14 81 1 138 27
155 73 10 29 19 37 48 42 75 14 121 71 121 148 0 70 24 92 100 93 l62 0 -33
-15z"/>
<path d="M268 1253 c7 -3 16 -2 19 1 4 3 -2 6 -13 5 -11 0 -14 -3 -6 -6z"/>
<path d="M308 1253 c6 -2 18 -2 25 0 6 3 1 5 -13 5 -14 0 -19 -2 -12 -5z"/>
<path d="M3048 1253 c7 -3 16 -2 19 1 4 3 -2 6 -13 5 -11 0 -14 -3 -6 -6z"/>
<path d="M3118 1253 c7 -3 16 -2 19 1 4 3 -2 6 -13 5 -11 0 -14 -3 -6 -6z"/>
<path d="M455 1221 c-7 -22 3 -51 18 -51 6 0 7 3 4 7 -4 3 -1 16 7 29 8 12 12
24 9 28 -12 12 -32 6 -38 -13z"/>
<path d="M565 1210 c-18 -36 -19 -57 0 -90 l14 -25 -1 35 c-1 42 10 80 23 80
5 0 9 7 9 15 0 26 -29 16 -45 -15z"/>
<path d="M2920 1236 c0 -3 9 -20 19 -38 12 -20 18 -47 16 -68 -3 -32 -2 -33
11 -15 28 38 7 125 -32 125 -8 0 -14 -2 -14 -4z"/>
<path d="M2986 1231 c-3 -5 1 -11 9 -15 10 -3 15 -19 15 -43 0 -28 3 -34 10
-23 5 8 10 25 10 38 0 28 18 29 29 0 10 -29 25 -6 17 28 -7 25 -30 32 -40 12
-5 -10 -7 -10 -12 0 -7 14 -30 16 -38 3z"/>
<path d="M1597 1216 c-57 -21 -115 -63 -137 -99 -24 -38 -26 -94 -5 -124 8
-12 16 -41 16 -65 2 -37 8 -49 46 -86 52 -51 70 -49 25 3 -52 58 -60 114 -31
222 13 47 67 116 113 144 36 22 26 24 -27 5z"/>
<path d="M1673 1209 c-180 -88 -183 -337 -5 -428 48 -24 102 -31 152 -20 37 8
43 7 63 -17 27 -32 71 -35 92 -8 26 35 18 43 -35 37 -32 -3 -50 -1 -50 6 0 6
4 11 8 11 5 0 23 15 42 33 100 97 95 260 -10 350 -23 19 -37 38 -31 41 15 10
92 -73 113 -121 10 -23 21 -69 24 -101 7 -68 -12 -116 -68 -171 l-33 -32 40
21 c50 26 85 76 85 119 0 17 7 46 17 64 32 64 8 139 -61 183 -48 32 -112 54
-123 43 -5 -5 -22 -5 -43 1 -55 16 -131 11 -177 -11z m203 -29 c104 -59 140
-180 84 -289 -90 -178 -371 -125 -395 74 -22 172 161 299 311 215z"/>
<path d="M1110 1172 c0 -5 9 -17 20 -27 11 -10 20 -24 20 -31 0 -8 11 -16 25
-20 17 -4 31 -18 40 -40 15 -37 55 -54 80 -34 20 17 19 30 -3 30 -22 0 -62 35
-62 55 0 10 -10 15 -29 15 -21 0 -32 6 -36 20 -3 11 -13 20 -21 20 -8 0 -14 5
-14 10 0 6 -4 10 -10 10 -5 0 -10 -4 -10 -8z"/>
<path d="M2393 1167 c-12 -6 -24 -19 -26 -29 -3 -11 -15 -18 -31 -18 -18 0
-30 -8 -41 -30 -10 -19 -27 -32 -47 -38 -29 -7 -30 -9 -14 -25 10 -9 23 -17
31 -17 20 0 56 33 59 55 2 11 8 20 14 20 13 0 40 23 65 56 14 19 23 42 15 38
-2 -1 -13 -6 -25 -12z"/>
<path d="M753 1149 c-126 -62 -68 -249 63 -205 12 3 28 21 35 38 16 39 -3 78
-44 89 -34 9 -72 -21 -64 -52 3 -12 0 -19 -8 -19 -8 0 -15 10 -17 23 -13 79
75 134 159 98 16 -7 59 -52 98 -103 124 -161 210 -211 362 -209 53 0 123 26
130 48 3 8 -5 8 -26 -3 -39 -19 -114 -25 -170 -13 -105 23 -186 82 -266 194
-95 132 -158 161 -252 114z"/>
<path d="M1495 778 c12 -38 44 -101 70 -136 20 -28 22 -38 14 -60 -6 -15 -16
-30 -22 -35 -7 -5 2 -6 23 -3 39 7 50 20 50 59 0 19 4 27 13 24 6 -2 24 0 40
4 27 8 28 7 30 -33 1 -7 -2 -36 -6 -64 -9 -62 -25 -80 -52 -60 -17 12 -18 17
-7 41 7 15 11 30 8 32 -7 8 -46 -17 -47 -30 -1 -7 -3 -22 -4 -34 -3 -30 28
-57 59 -51 20 4 25 0 35 -31 11 -38 47 -84 68 -88 16 -3 59 54 68 90 6 21 13
27 35 27 56 0 80 60 40 100 -26 26 -44 27 -30 1 16 -30 12 -58 -9 -64 -35 -9
-41 2 -49 106 -3 44 -1 67 6 67 6 0 13 -4 16 -9 3 -4 17 -6 31 -3 23 4 25 1
25 -30 0 -28 5 -37 25 -46 14 -7 33 -12 42 -12 15 0 15 2 0 18 -25 28 -21 57
17 109 31 45 56 101 56 127 0 6 -16 -13 -35 -41 -42 -62 -53 -69 -125 -75 -54
-4 -57 -3 -83 30 l-27 35 -2 -59 -1 -59 -6 55 -6 55 -21 -29 c-20 -28 -25 -30
-79 -27 -70 3 -92 16 -129 76 -32 50 -41 56 -31 23z m319 -129 c-10 -16 -12
-81 -4 -110 5 -17 5 -27 0 -24 -5 3 -11 1 -14 -4 -4 -5 -1 -13 4 -16 33 -21
33 -92 -1 -135 l-19 -25 1 93 c1 50 5 92 10 92 5 0 9 5 9 11 0 5 -5 7 -10 4
-7 -4 -9 20 -6 72 5 96 4 92 21 69 8 -10 12 -23 9 -27z m-47 -51 c-3 -8 -6 -5
-6 6 -1 11 2 17 5 13 3 -3 4 -12 1 -19z"/>
<path d="M1540 766 c0 -21 35 -46 62 -46 25 0 67 35 55 47 -13 12 -117 12
-117 -1z"/>
<path d="M839 288 c0 -2 -1 -42 -2 -91 -2 -72 1 -87 13 -87 12 0 14 10 11 46
l-3 47 31 -6 c20 -4 30 -3 26 3 -3 6 -17 10 -31 10 -21 0 -24 4 -24 36 0 35 1
36 30 30 19 -3 29 -2 25 4 -5 8 -74 15 -76 8z"/>
<path d="M2067 276 c-3 -8 13 -11 46 -10 28 1 53 7 55 12 4 14 -96 12 -101 -2z"/>
<path d="M2333 275 c-9 -24 1 -27 15 -5 8 13 8 20 2 20 -6 0 -13 -7 -17 -15z"/>
<path d="M2391 269 c28 -28 18 -63 -34 -117 l-41 -42 57 0 c45 0 57 3 57 16 0
9 -5 12 -11 8 -6 -4 -24 -8 -40 -9 -31 -3 -30 10 3 33 21 15 48 64 48 86 0 19
-27 46 -46 46 -10 0 -8 -6 7 -21z"/>
<path d="M2475 267 c-22 -34 -22 -112 0 -137 22 -24 51 -26 72 -4 24 24 29
108 9 139 -21 32 -60 33 -81 2z m66 -14 c24 -64 -8 -160 -42 -126 -33 33 -24
153 12 153 12 0 24 -11 30 -27z"/>
<path d="M2601 273 c0 -11 3 -13 6 -5 8 21 53 14 62 -10 12 -33 3 -54 -40 -99
-22 -23 -39 -42 -39 -44 0 -2 23 -3 52 -2 33 1 53 7 56 15 3 11 0 12 -14 5
-11 -6 -29 -7 -41 -4 -22 6 -22 7 11 39 43 41 53 78 30 103 -23 25 -84 26 -83
2z"/>
<path d="M2737 283 c-4 -3 -7 -11 -7 -17 0 -6 5 -5 12 2 16 16 45 15 54 0 18
-29 3 -73 -38 -115 l-42 -43 57 0 c45 0 57 3 57 16 0 9 -5 12 -11 8 -6 -4 -24
-8 -40 -9 -31 -3 -30 10 3 33 10 7 25 30 34 50 20 50 4 82 -41 82 -17 0 -35
-3 -38 -7z"/>
<path d="M965 185 l0 -75 45 2 c37 1 39 2 13 5 -30 4 -33 7 -33 38 0 30 2 33
25 29 14 -2 25 0 25 5 0 4 -10 8 -22 7 -18 -1 -24 5 -26 28 -3 26 -1 28 22 24
14 -3 26 -1 26 3 0 5 -17 9 -37 9 l-38 0 0 -75z"/>
<path d="M1098 195 c-4 -80 -2 -85 25 -84 12 0 16 3 10 6 -7 2 -13 20 -13 40
0 27 4 34 16 31 28 -5 41 -35 26 -58 -13 -22 -3 -27 16 -8 17 17 15 55 -3 62
-13 5 -14 10 -5 26 12 22 -1 50 -22 50 -6 0 -5 -7 2 -15 15 -18 6 -45 -16 -45
-12 0 -15 7 -12 30 3 20 0 30 -8 30 -8 0 -13 -22 -16 -65z"/>
<path d="M1230 202 c0 -65 18 -92 61 -92 29 0 43 9 56 35 12 26 11 107 -2 112
-6 2 -9 -16 -7 -46 5 -60 -10 -91 -43 -91 -32 0 -43 24 -41 88 1 36 -3 52 -11
52 -9 0 -13 -18 -13 -58z"/>
<path d="M1406 248 c5 -7 7 -41 6 -75 -2 -47 1 -63 11 -63 9 0 12 9 9 29 -6
43 12 45 49 6 43 -45 76 -47 90 -5 6 16 15 28 19 25 5 -3 12 0 16 6 4 8 3 9
-4 5 -8 -5 -12 1 -12 18 0 35 17 41 24 8 10 -43 39 -92 54 -92 11 0 12 4 4 13
-6 6 -20 37 -32 67 -12 30 -25 59 -30 63 -4 5 -20 -23 -35 -62 -15 -39 -32
-71 -39 -71 -21 0 -60 60 -47 73 16 16 13 54 -5 61 -27 10 -39 7 -20 -7 26
-19 18 -62 -13 -63 -21 -1 -23 2 -18 37 4 34 2 39 -15 39 -13 0 -17 -4 -12
-12z"/>
<path d="M1714 185 c0 -69 1 -75 20 -75 12 0 16 3 10 8 -5 4 -10 17 -10 30 0
31 26 28 58 -8 14 -16 32 -30 39 -30 7 0 -1 15 -18 33 -29 29 -31 34 -18 57
20 37 3 60 -43 60 l-37 0 -1 -75z m65 48 c12 -23 -4 -53 -28 -53 -14 0 -18 7
-16 33 3 39 2 37 20 37 7 0 18 -8 24 -17z"/>
<path d="M1870 217 c22 -33 28 -51 24 -75 -4 -24 -1 -32 10 -32 10 0 14 8 12
28 -4 28 15 74 42 105 14 15 13 17 -1 17 -10 0 -17 -6 -17 -14 0 -8 -8 -23
-17 -35 l-18 -22 -19 36 c-11 19 -25 35 -32 35 -9 0 -3 -16 16 -43z"/>
<path d="M2128 218 c-30 -66 -41 -99 -34 -105 8 -9 10 -6 34 66 23 71 23 91 0
39z"/>
<path d="M2200 119 c0 -11 5 -17 10 -14 6 3 10 13 10 21 0 8 -4 14 -10 14 -5
0 -10 -9 -10 -21z"/>
</g>
</svg>
